<?xml version="1.0" encoding="UTF-8" standalone="no"?>
<!DOCTYPE svg PUBLIC "-//W3C//DTD SVG 1.1//EN" "http://www.w3.org/Graphics/SVG/1.1/DTD/svg11.dtd">
<svg width="100%" height="100%" viewBox="0 0 48 48" version="1.1" xmlns="http://www.w3.org/2000/svg" xmlns:xlink="http://www.w3.org/1999/xlink" xml:space="preserve" xmlns:serif="http://www.serif.com/" style="fill-rule:evenodd;clip-rule:evenodd;stroke-linejoin:round;stroke-miterlimit:2;">
    <path d="M10,42L10,8.75C10,7.95 10.3,7.25 10.9,6.65C11.5,6.05 12.2,5.75 13,5.75L29.8,5.75C29.033,6.617 28.458,7.542 28.075,8.525C27.692,9.508 27.5,10.583 27.5,11.75C27.5,13.983 28.217,15.933 29.65,17.6C31.083,19.267 32.867,20.283 35,20.65C35.567,20.717 36.067,20.75 36.5,20.75C36.933,20.75 37.433,20.717 38,20.65L38,42L24,36L10,42ZM35,17.75L35,13.25L30.5,13.25L30.5,10.25L35,10.25L35,5.75L38,5.75L38,10.25L42.5,10.25L42.5,13.25L38,13.25L38,17.75L35,17.75Z" style="fill:white;fill-rule:nonzero;"/>
</svg>
