<?xml version="1.0" encoding="UTF-8" standalone="no"?>
<!DOCTYPE svg PUBLIC "-//W3C//DTD SVG 1.1//EN" "http://www.w3.org/Graphics/SVG/1.1/DTD/svg11.dtd">
<svg width="100%" height="100%" viewBox="0 0 48 48" version="1.1" xmlns="http://www.w3.org/2000/svg" xmlns:xlink="http://www.w3.org/1999/xlink" xml:space="preserve" xmlns:serif="http://www.serif.com/" style="fill-rule:evenodd;clip-rule:evenodd;stroke-linejoin:round;stroke-miterlimit:2;">
    <path d="M39,41.5L39,5L11.65,5L11.65,2L39,2C39.8,2 40.5,2.3 41.1,2.9C41.7,3.5 42,4.2 42,5L42,41.5L39,41.5ZM9,41.45L21,36.3L33,41.45L33,11L9,11L9,41.45ZM6,46L6,11C6,10.2 6.3,9.5 6.9,8.9C7.5,8.3 8.2,8 9,8L33,8C33.8,8 34.508,8.3 35.125,8.9C35.742,9.5 36.05,10.2 36.05,11L36.05,46L21,39.65L6,46ZM9,11L33,11L9,11Z" style="fill:white;fill-rule:nonzero;"/>
</svg>
